<?xml version="1.0" encoding="utf-8"?>
<!-- Generator: Adobe Illustrator 17.1.0, SVG Export Plug-In . SVG Version: 6.00 Build 0)  -->
<!DOCTYPE svg PUBLIC "-//W3C//DTD SVG 1.1//EN" "http://www.w3.org/Graphics/SVG/1.1/DTD/svg11.dtd">
<svg version="1.1" id="Слой_1" xmlns="http://www.w3.org/2000/svg" xmlns:xlink="http://www.w3.org/1999/xlink" x="0px" y="0px"
	 viewBox="0 0 13 13" enable-background="new 0 0 13 13" xml:space="preserve">
<g>
	<g>
		<path fill="#FFFFFF" d="M7.1,13H5.9C2.7,13,0,10.3,0,7.1V5.9C0,2.7,2.7,0,5.9,0h1.2C10.3,0,13,2.7,13,5.9v1.2
			C13,10.3,10.3,13,7.1,13z"/>
	</g>
	<g>
		<path fill="currentColor" d="M0.9,6.8c0-0.2,0-0.5,0-0.7c0,0,0-0.1,0-0.1C0.9,5.8,1,5.5,1,5.2c0.2-0.9,0.6-1.8,1.3-2.5
			c0.4-0.4,0.8-0.7,1.2-1C4.2,1.3,4.9,1,5.8,0.9c0.1,0,0.3,0,0.4-0.1c0.2,0,0.5,0,0.7,0c0.1,0,0.3,0,0.4,0.1C7.9,1,8.5,1.2,9.1,1.5
			c0.8,0.4,1.5,1,2,1.7c0.5,0.8,0.9,1.6,1,2.5c0,0.1,0,0.3,0.1,0.4c0,0.2,0,0.5,0,0.7c0,0,0,0.1,0,0.1c0,0.3-0.1,0.6-0.1,0.8
			c-0.1,0.5-0.3,0.9-0.5,1.3c-0.4,0.8-1,1.5-1.7,2c-0.8,0.5-1.6,0.9-2.5,1c-0.1,0-0.3,0-0.4,0.1c-0.2,0-0.5,0-0.7,0
			c-0.1,0-0.3,0-0.4-0.1c-0.6-0.1-1.2-0.3-1.8-0.6c-0.8-0.4-1.5-1-2-1.7C1.4,9,1,8.2,0.9,7.2C0.9,7.1,0.9,7,0.9,6.8z M11.4,6.5
			c0-2.7-2.2-4.9-4.9-4.9c-2.7,0-4.9,2.2-4.9,4.9c0,2.7,2.2,4.9,4.9,4.9C9.2,11.4,11.4,9.2,11.4,6.5z"/>
		<path fill="#FFFFFF" d="M11.4,6.5c0,2.7-2.2,4.9-4.9,4.9c-2.7,0-4.9-2.2-4.9-4.9c0-2.7,2.2-4.9,4.9-4.9C9.2,1.6,11.4,3.8,11.4,6.5
			z M10.7,6.5c0-2.3-1.9-4.2-4.2-4.2c-2.3,0-4.2,1.9-4.2,4.2c0,2.3,1.9,4.2,4.2,4.2C8.8,10.7,10.7,8.8,10.7,6.5z"/>
		<path fill="currentColor" d="M10.7,6.5c0,2.3-1.9,4.2-4.2,4.2c-2.3,0-4.2-1.9-4.2-4.2c0-2.3,1.9-4.2,4.2-4.2C8.8,2.3,10.7,4.2,10.7,6.5
			z M6.2,3C6.2,3,6.2,3,6.2,3c0,0.2,0,0.3,0,0.4c0,0.1,0,0.2,0,0.2c0,0-0.1,0-0.2,0.1C5.6,3.7,5.4,3.8,5.1,4.1
			C4.8,4.5,4.7,4.9,4.8,5.4c0,0.4,0.2,0.7,0.5,0.9C5.4,6.6,5.7,6.7,6,6.8c0.3,0.1,0.6,0.3,1,0.4c0.4,0.2,0.4,0.7,0.1,1
			C6.9,8.3,6.7,8.3,6.6,8.3c-0.4,0-0.8-0.2-0.9-0.6c0-0.1-0.1-0.2-0.1-0.3c-0.3,0.1-0.7,0.2-1,0.3c0,0,0,0.1,0,0.1
			c0.1,0.2,0.1,0.4,0.2,0.5c0.2,0.4,0.4,0.6,0.8,0.8c0.2,0.1,0.4,0.1,0.6,0.2c0.1,0,0.1,0,0.1,0.1c0,0.1,0,0.3,0,0.4
			c0,0.1,0,0.2,0,0.3c0.2,0,0.4,0,0.7,0c0,0,0-0.1,0-0.1c0-0.2,0-0.4,0-0.6c0-0.1,0-0.1,0.1-0.1c0.1,0,0.2,0,0.3-0.1
			c0.4-0.1,0.7-0.3,0.9-0.5c0.3-0.3,0.4-0.7,0.4-1.1c0-0.6-0.2-1.1-0.7-1.4C7.4,6,7.2,5.9,6.9,5.8C6.7,5.7,6.4,5.6,6.2,5.5
			C6,5.4,5.9,5.2,5.9,5c0-0.4,0.4-0.6,0.8-0.5c0.3,0.1,0.4,0.2,0.5,0.5C7.3,5,7.3,5.1,7.4,5.2C7.7,5.1,8,5,8.3,4.9c0,0,0,0,0,0
			c0,0,0,0,0-0.1C8.1,4.4,8,4.1,7.7,3.9C7.5,3.8,7.2,3.7,6.9,3.6c-0.1,0-0.1,0-0.1-0.1c0-0.2,0-0.3,0-0.5c0,0,0-0.1-0.1-0.1
			C6.6,3,6.4,3,6.2,3z"/>
		<path fill="#FFFFFF" d="M6.2,3c0.2,0,0.4,0,0.6,0c0,0,0.1,0,0.1,0.1c0,0.2,0,0.3,0,0.5c0,0.1,0,0.1,0.1,0.1c0.3,0,0.5,0.1,0.7,0.3
			C8,4.1,8.1,4.4,8.3,4.8c0,0,0,0,0,0.1c0,0,0,0,0,0C8,5,7.7,5.1,7.4,5.2c0-0.1-0.1-0.2-0.1-0.3C7.1,4.7,6.9,4.5,6.7,4.5
			C6.3,4.4,6,4.6,5.9,5c0,0.2,0.1,0.4,0.3,0.5c0.2,0.1,0.5,0.2,0.7,0.3C7.2,5.9,7.4,6,7.7,6.2C8.2,6.5,8.5,7,8.5,7.5
			c0,0.4-0.1,0.8-0.4,1.1C7.8,8.9,7.5,9.1,7.2,9.2c-0.1,0-0.2,0-0.3,0.1c-0.1,0-0.1,0-0.1,0.1c0,0.2,0,0.4,0,0.6c0,0,0,0.1,0,0.1
			c-0.2,0-0.4,0-0.7,0c0-0.1,0-0.2,0-0.3c0-0.1,0-0.3,0-0.4c0-0.1,0-0.1-0.1-0.1c-0.2,0-0.4-0.1-0.6-0.2C5.2,8.9,4.9,8.6,4.8,8.3
			C4.7,8.1,4.6,7.9,4.6,7.8c0,0,0-0.1,0-0.1c0.3-0.1,0.6-0.2,1-0.3c0,0.1,0.1,0.2,0.1,0.3c0.1,0.4,0.5,0.6,0.9,0.6
			c0.2,0,0.3,0,0.5-0.2c0.3-0.2,0.3-0.8-0.1-1C6.6,7,6.3,6.9,6,6.8C5.7,6.7,5.4,6.6,5.2,6.3C4.9,6.1,4.8,5.8,4.8,5.4
			C4.7,4.9,4.8,4.5,5.1,4.1c0.2-0.2,0.5-0.4,0.8-0.4c0.1,0,0.2,0,0.2-0.1c0,0,0-0.1,0-0.2C6.2,3.2,6.2,3.1,6.2,3C6.2,3,6.2,3,6.2,3z
			"/>
	</g>
</g>
</svg>
