<?xml version="1.0" encoding="utf-8"?>
<!-- Generator: Adobe Illustrator 17.1.0, SVG Export Plug-In . SVG Version: 6.00 Build 0)  -->
<!DOCTYPE svg PUBLIC "-//W3C//DTD SVG 1.1//EN" "http://www.w3.org/Graphics/SVG/1.1/DTD/svg11.dtd">
<svg version="1.1" id="Слой_1" xmlns="http://www.w3.org/2000/svg" xmlns:xlink="http://www.w3.org/1999/xlink" x="0px" y="0px"
	 viewBox="0 0 13 13" enable-background="new 0 0 13 13" xml:space="preserve">
<g>
	<path fill="#FFFFFF" d="M7.1,13H5.9C2.7,13,0,10.3,0,7.1V5.9C0,2.7,2.7,0,5.9,0h1.2C10.3,0,13,2.7,13,5.9v1.2
		C13,10.3,10.3,13,7.1,13z"/>
	<path fill="currentColor" d="M6.4,1.9c0.1,0,0.1,0,0.2,0C6.8,1.9,6.9,2,7.1,2.2c0.4,0.4,0.7,0.7,1.1,1.1c0,0,0,0,0.1,0.1
		c0-0.1,0-0.2,0-0.3c0-0.3,0.3-0.6,0.6-0.6c0.2,0,0.4,0,0.5,0c0.4,0,0.6,0.2,0.6,0.6c0,0.6,0,1.3,0,1.9c0,0.1,0,0.1,0.1,0.1
		c0.3,0.3,0.5,0.5,0.8,0.8C10.9,6,11,6.1,11,6.2c0.1,0.2,0.1,0.4,0,0.6C11,7,10.8,7.1,10.6,7.1c-0.2,0-0.3,0-0.5,0c0,0-0.1,0-0.1,0
		c0,0,0,0.1,0,0.1c0,1.1,0,2.2,0,3.3c0,0.4-0.2,0.6-0.6,0.6c-0.5,0-1.1,0-1.6,0c0,0-0.1,0-0.1,0c0,0,0-0.1,0-0.1c0-0.9,0-1.8,0-2.7
		c0-0.4-0.2-0.6-0.6-0.6c-0.4,0-0.7,0-1.1,0c-0.4,0-0.6,0.2-0.6,0.6c0,0.9,0,1.8,0,2.7c0,0,0,0.1,0,0.1c0,0-0.1,0-0.1,0
		c-0.5,0-1.1,0-1.6,0c-0.4,0-0.6-0.2-0.6-0.6c0-1.1,0-2.2,0-3.3c0,0,0-0.1,0-0.1c-0.2,0-0.4,0-0.6,0c-0.4,0-0.6-0.3-0.6-0.7
		c0-0.2,0.2-0.3,0.3-0.4c1.3-1.3,2.5-2.5,3.8-3.8C6.1,2,6.2,1.9,6.4,1.9z"/>
</g>
</svg>
