<?xml version="1.0" encoding="utf-8"?>
<!-- Generator: Adobe Illustrator 17.1.0, SVG Export Plug-In . SVG Version: 6.00 Build 0)  -->
<!DOCTYPE svg PUBLIC "-//W3C//DTD SVG 1.1//EN" "http://www.w3.org/Graphics/SVG/1.1/DTD/svg11.dtd">
<svg version="1.1" id="Слой_1" xmlns="http://www.w3.org/2000/svg" xmlns:xlink="http://www.w3.org/1999/xlink" x="0px" y="0px"
	 viewBox="0 0 13 13" enable-background="new 0 0 13 13" xml:space="preserve">
<g>
	<path fill="#FFFFFF" d="M7.1,13H5.9C2.7,13,0,10.3,0,7.1V5.9C0,2.7,2.7,0,5.9,0h1.2C10.3,0,13,2.7,13,5.9v1.2
		C13,10.3,10.3,13,7.1,13z"/>
	<g>
		<path fill="currentColor" d="M1.8,11c0-0.1,0-0.2,0-0.3c0.1-0.5,0.3-1,0.5-1.5c0.2-0.4,0.5-0.8,0.8-1.2c0.3-0.3,0.6-0.5,1-0.6
			c0,0,0.1,0,0.1,0C4.8,7.8,5.4,8.1,6,8.2C7,8.3,7.9,8,8.7,7.4c0,0,0,0,0.1,0c0.4,0.2,0.7,0.4,1,0.7c0.4,0.4,0.7,0.9,1,1.5
			c0.2,0.4,0.3,0.8,0.3,1.2c0,0.1,0,0.2,0,0.3c0,0,0,0-0.1,0c-3.1,0-6.1,0-9.2,0c0,0,0,0,0,0C1.8,11.1,1.8,11,1.8,11z"/>
		<path fill="currentColor" d="M9.2,4.6c0,1.5-1.2,2.7-2.7,2.7C5,7.3,3.8,6.1,3.8,4.6c0-1.5,1.2-2.7,2.7-2.7C8,1.9,9.2,3.1,9.2,4.6z"/>
	</g>
</g>
</svg>
