<?xml version="1.0" encoding="UTF-8"?><!DOCTYPE svg PUBLIC "-//W3C//DTD SVG 1.1//EN" "http://www.w3.org/Graphics/SVG/1.1/DTD/svg11.dtd"><svg xmlns="http://www.w3.org/2000/svg"><symbol id="icon-dollar" viewBox="0 0 13 13">
    <path d="M7.1 13H5.9C2.7 13 0 10.3 0 7.1V5.9C0 2.7 2.7 0 5.9 0h1.2C10.3 0 13 2.7 13 5.9v1.2c0 3.2-2.7 5.9-5.9 5.9z"/>
    <path fill="currentColor" d="M.9 6.8v-.7V6c0-.2.1-.5.1-.8.2-.9.6-1.8 1.3-2.5.4-.4.8-.7 1.2-1 .7-.4 1.4-.7 2.3-.8.1 0 .3 0 .4-.1h.7c.1 0 .3 0 .4.1.6.1 1.2.3 1.8.6.8.4 1.5 1 2 1.7.5.8.9 1.6 1 2.5 0 .1 0 .3.1.4V6.9c0 .3-.1.6-.1.8-.1.5-.3.9-.5 1.3-.4.8-1 1.5-1.7 2-.8.5-1.6.9-2.5 1-.1 0-.3 0-.4.1h-.7c-.1 0-.3 0-.4-.1-.6-.1-1.2-.3-1.8-.6-.8-.4-1.5-1-2-1.7C1.4 9 1 8.2.9 7.2v-.4zm10.5-.3c0-2.7-2.2-4.9-4.9-4.9S1.6 3.8 1.6 6.5s2.2 4.9 4.9 4.9 4.9-2.2 4.9-4.9z"/>
    <path d="M11.4 6.5c0 2.7-2.2 4.9-4.9 4.9S1.6 9.2 1.6 6.5s2.2-4.9 4.9-4.9 4.9 2.2 4.9 4.9zm-.7 0c0-2.3-1.9-4.2-4.2-4.2-2.3 0-4.2 1.9-4.2 4.2 0 2.3 1.9 4.2 4.2 4.2 2.3 0 4.2-1.9 4.2-4.2z"/>
    <path fill="currentColor" d="M10.7 6.5c0 2.3-1.9 4.2-4.2 4.2-2.3 0-4.2-1.9-4.2-4.2 0-2.3 1.9-4.2 4.2-4.2 2.3 0 4.2 1.9 4.2 4.2zM6.2 3V3.6s-.1 0-.2.1c-.4 0-.6.1-.9.4-.3.4-.4.8-.3 1.3 0 .4.2.7.5.9.1.3.4.4.7.5.3.1.6.3 1 .4.4.2.4.7.1 1-.2.1-.4.1-.5.1-.4 0-.8-.2-.9-.6 0-.1-.1-.2-.1-.3-.3.1-.7.2-1 .3v.1c.1.2.1.4.2.5.2.4.4.6.8.8.2.1.4.1.6.2.1 0 .1 0 .1.1v.7H7V10v-.6c0-.1 0-.1.1-.1s.2 0 .3-.1c.4-.1.7-.3.9-.5.3-.3.4-.7.4-1.1 0-.6-.2-1.1-.7-1.4-.6-.2-.8-.3-1.1-.4-.2-.1-.5-.2-.7-.3-.2-.1-.3-.3-.3-.5 0-.4.4-.6.8-.5.3.1.4.2.5.5.1 0 .1.1.2.2l.9-.3v-.1c-.2-.4-.3-.7-.6-.9-.2-.1-.5-.2-.8-.3-.1 0-.1 0-.1-.1V3s0-.1-.1-.1c-.1.1-.3.1-.5.1z"/>
    <path d="M6.2 3h.6s.1 0 .1.1v.5c0 .1 0 .1.1.1.3 0 .5.1.7.3.3.1.4.4.6.8v.1l-.9.3c0-.1-.1-.2-.1-.3-.2-.2-.4-.4-.6-.4-.4-.1-.7.1-.8.5 0 .2.1.4.3.5.2.1.5.2.7.3.3.1.5.2.8.4.5.3.8.8.8 1.3 0 .4-.1.8-.4 1.1-.3.3-.6.5-.9.6-.1 0-.2 0-.3.1-.1 0-.1 0-.1.1v.7h-.7v-.3-.4c0-.1 0-.1-.1-.1-.2 0-.4-.1-.6-.2-.2-.2-.5-.5-.6-.8-.1-.2-.2-.4-.2-.5v-.1c.3-.1.6-.2 1-.3 0 .1.1.2.1.3.1.4.5.6.9.6.2 0 .3 0 .5-.2.3-.2.3-.8-.1-1-.4-.1-.7-.2-1-.3-.3-.1-.6-.2-.8-.5-.3-.2-.4-.5-.4-.9-.1-.5 0-.9.3-1.3.2-.2.5-.4.8-.4.1 0 .2 0 .2-.1v-.2c.1-.2.1-.3.1-.4z"/>
</symbol><symbol id="icon-home" viewBox="0 0 13 13">
    <path d="M7.1 13H5.9C2.7 13 0 10.3 0 7.1V5.9C0 2.7 2.7 0 5.9 0h1.2C10.3 0 13 2.7 13 5.9v1.2c0 3.2-2.7 5.9-5.9 5.9z"/>
    <path fill="currentColor" d="M6.4 1.9h.2c.2 0 .3.1.5.3l1.1 1.1.1.1v-.3c0-.3.3-.6.6-.6h.5c.4 0 .6.2.6.6V5c0 .1 0 .1.1.1l.8.8c0 .1.1.2.1.3.1.2.1.4 0 .6 0 .2-.2.3-.4.3h-.5-.1v3.4c0 .4-.2.6-.6.6H7.8h-.1V11 8.3c0-.4-.2-.6-.6-.6H6c-.4 0-.6.2-.6.6V11.1H3.7c-.4 0-.6-.2-.6-.6V7.2v-.1h-.6c-.4 0-.6-.3-.6-.7 0-.2.2-.3.3-.4L6 2.2c.1-.2.2-.3.4-.3z"/>
</symbol><symbol id="icon-user" viewBox="0 0 13 13">
    <path d="M7.1 13H5.9C2.7 13 0 10.3 0 7.1V5.9C0 2.7 2.7 0 5.9 0h1.2C10.3 0 13 2.7 13 5.9v1.2c0 3.2-2.7 5.9-5.9 5.9z"/>
    <g fill="currentColor">
        <path d="M1.8 11v-.3c.1-.5.3-1 .5-1.5.2-.4.5-.8.8-1.2.3-.3.6-.5 1-.6h.1c.6.4 1.2.7 1.8.8 1 .1 1.9-.2 2.7-.8h.1c.4.2.7.4 1 .7.4.4.7.9 1 1.5.2.4.3.8.3 1.2v.3H1.8V11z"/>
        <path d="M9.2 4.6c0 1.5-1.2 2.7-2.7 2.7-1.5 0-2.7-1.2-2.7-2.7 0-1.5 1.2-2.7 2.7-2.7 1.5 0 2.7 1.2 2.7 2.7z"/>
    </g>
</symbol></svg>